<svg id="Capa_1" data-name="Capa 1" xmlns="http://www.w3.org/2000/svg" viewBox="0 0 511.39 243.53"><defs><style>.cls-1{fill:#23253e;}</style></defs><path class="cls-1" d="M148.54,164.58h-4.83v-3.42h13.81v3.42h-4.9v14.55h-4.08Z"/><path class="cls-1" d="M159.68,161.4a36.1,36.1,0,0,1,5.41-.37c2.67,0,4.53.4,5.81,1.41a4.56,4.56,0,0,1,1.65,3.76,4.76,4.76,0,0,1-3.17,4.43v.08c1.26.51,2,1.7,2.4,3.36.56,2,1.12,4.37,1.47,5.06h-4.16a22.36,22.36,0,0,1-1.25-4.18c-.48-2.24-1.26-2.85-2.91-2.88H163.7v7.06h-4Zm4,7.74h1.6c2,0,3.23-1,3.23-2.59s-1.12-2.48-3-2.51a9.45,9.45,0,0,0-1.84.14Z"/><path class="cls-1" d="M179.91,174.52l-1.28,4.61h-4.22l5.5-18h5.33l5.57,18h-4.37l-1.39-4.61Zm4.56-3-1.12-3.81c-.32-1.07-.64-2.4-.91-3.47h-.05c-.27,1.07-.54,2.43-.83,3.47l-1.07,3.81Z"/><path class="cls-1" d="M193.2,179.13v-18H198l3.73,6.59a51.15,51.15,0,0,1,2.94,6.16h.07a68.31,68.31,0,0,1-.34-7.49v-5.26h3.73v18h-4.26L200,172.2a66.63,66.63,0,0,1-3.12-6.34l-.08,0c.1,2.38.16,4.91.16,7.84v5.41Z"/><path class="cls-1" d="M211.73,175a10.34,10.34,0,0,0,4.5,1.12c1.87,0,2.86-.78,2.86-1.95s-.86-1.76-3-2.53c-3-1-4.93-2.69-4.93-5.31,0-3.06,2.56-5.41,6.8-5.41a11,11,0,0,1,4.59.91l-.91,3.28a8.48,8.48,0,0,0-3.76-.86c-1.76,0-2.61.8-2.61,1.74,0,1.14,1,1.65,3.33,2.53,3.17,1.17,4.67,2.83,4.67,5.36,0,3-2.32,5.57-7.26,5.57a11.75,11.75,0,0,1-5.09-1.09Z"/><path class="cls-1" d="M226,161.4a33.65,33.65,0,0,1,5.49-.37c2.5,0,4.29.48,5.49,1.44a5.25,5.25,0,0,1,1.92,4.16,5.79,5.79,0,0,1-1.65,4.27,8.37,8.37,0,0,1-5.84,1.89,11,11,0,0,1-1.39-.08v6.42h-4Zm4,8.16a6.24,6.24,0,0,0,1.36.11c2.16,0,3.5-1.09,3.5-2.93,0-1.66-1.15-2.64-3.18-2.64a7,7,0,0,0-1.68.16Z"/><path class="cls-1" d="M257.92,170c0,5.89-3.57,9.47-8.82,9.47s-8.46-4-8.46-9.15c0-5.38,3.44-9.41,8.75-9.41C254.91,160.87,257.92,165,257.92,170Zm-13,.24c0,3.52,1.65,6,4.37,6s4.32-2.61,4.32-6.1c0-3.23-1.55-6-4.35-6S244.94,166.71,244.94,170.2Z"/><path class="cls-1" d="M260.58,161.4A36.2,36.2,0,0,1,266,161c2.67,0,4.54.4,5.82,1.41a4.59,4.59,0,0,1,1.65,3.76,4.77,4.77,0,0,1-3.17,4.43v.08c1.25.51,1.94,1.7,2.4,3.36.56,2,1.12,4.37,1.46,5.06H270a22.36,22.36,0,0,1-1.25-4.18c-.48-2.24-1.25-2.85-2.91-2.88h-1.22v7.06h-4Zm4,7.74h1.6c2,0,3.22-1,3.22-2.59s-1.12-2.48-3-2.51a9.28,9.28,0,0,0-1.84.14Z"/><path class="cls-1" d="M279.85,164.58H275v-3.42h13.81v3.42h-4.91v14.55h-4.08Z"/><path class="cls-1" d="M301.68,171.54h-6.61v4.26h7.39v3.33H291v-18h11.09v3.34h-7v3.73h6.61Z"/><path class="cls-1" d="M305.36,175a10.34,10.34,0,0,0,4.5,1.12c1.87,0,2.86-.78,2.86-1.95s-.86-1.76-3-2.53c-3-1-4.93-2.69-4.93-5.31,0-3.06,2.56-5.41,6.8-5.41a11,11,0,0,1,4.58.91l-.9,3.28a8.48,8.48,0,0,0-3.76-.86c-1.76,0-2.61.8-2.61,1.74,0,1.14,1,1.65,3.33,2.53,3.17,1.17,4.66,2.83,4.66,5.36,0,3-2.31,5.57-7.25,5.57a11.75,11.75,0,0,1-5.09-1.09Z"/><path class="cls-1" d="M335.69,171.54h-6.61v4.26h7.38v3.33H325v-18h11.09v3.34h-7v3.73h6.61Z"/><path class="cls-1" d="M348.69,161.16v18h-4.07v-18Z"/><path class="cls-1" d="M352.21,179.13v-18H357l3.73,6.59a51.08,51.08,0,0,1,2.93,6.16h.08a68.31,68.31,0,0,1-.34-7.49v-5.26h3.73v18h-4.27L359,172.2a69.1,69.1,0,0,1-3.12-6.34l-.08,0c.11,2.38.16,4.91.16,7.84v5.41Z"/><path class="cls-1" d="M374.84,179.13l-5.76-18h4.45l2.19,7.6c.61,2.14,1.17,4.19,1.6,6.43h.08c.45-2.16,1-4.29,1.63-6.35l2.29-7.68h4.32l-6.05,18Z"/><path class="cls-1" d="M398.24,171.54h-6.61v4.26H399v3.33H387.55v-18h11.09v3.34h-7v3.73h6.61Z"/><path class="cls-1" d="M401.78,161.4a36.35,36.35,0,0,1,5.42-.37c2.66,0,4.53.4,5.81,1.41a4.56,4.56,0,0,1,1.65,3.76,4.77,4.77,0,0,1-3.17,4.43v.08c1.25.51,1.94,1.7,2.4,3.36.56,2,1.12,4.37,1.47,5.06h-4.17a22.36,22.36,0,0,1-1.25-4.18c-.48-2.24-1.25-2.85-2.9-2.88h-1.23v7.06h-4Zm4,7.74h1.6c2,0,3.23-1,3.23-2.59s-1.12-2.48-3-2.51a9.28,9.28,0,0,0-1.84.14Z"/><path class="cls-1" d="M417.72,175a10.42,10.42,0,0,0,4.51,1.12c1.86,0,2.85-.78,2.85-1.95s-.85-1.76-3-2.53c-3-1-4.93-2.69-4.93-5.31,0-3.06,2.55-5.41,6.79-5.41a11,11,0,0,1,4.59.91l-.91,3.28a8.48,8.48,0,0,0-3.76-.86c-1.76,0-2.61.8-2.61,1.74,0,1.14,1,1.65,3.33,2.53,3.18,1.17,4.67,2.83,4.67,5.36,0,3-2.32,5.57-7.25,5.57a11.72,11.72,0,0,1-5.09-1.09Z"/><path class="cls-1" d="M436.06,161.16v18H432v-18Z"/><path class="cls-1" d="M456,170c0,5.89-3.58,9.47-8.83,9.47s-8.45-4-8.45-9.15c0-5.38,3.44-9.41,8.75-9.41C453,160.87,456,165,456,170Zm-13,.24c0,3.52,1.66,6,4.37,6s4.32-2.61,4.32-6.1c0-3.23-1.54-6-4.34-6S443,166.71,443,170.2Z"/><path class="cls-1" d="M458.69,179.13v-18h4.74l3.73,6.59a51.15,51.15,0,0,1,2.94,6.16h.08a65.83,65.83,0,0,1-.35-7.49v-5.26h3.73v18H469.3l-3.84-6.93a66.63,66.63,0,0,1-3.12-6.34l-.08,0c.11,2.38.16,4.91.16,7.84v5.41Z"/><path class="cls-1" d="M487.77,171.54h-6.62v4.26h7.39v3.33H477.08v-18h11.09v3.34h-7v3.73h6.62Z"/><path class="cls-1" d="M491.44,175a10.35,10.35,0,0,0,4.51,1.12c1.86,0,2.85-.78,2.85-1.95s-.85-1.76-3-2.53c-3-1-4.94-2.69-4.94-5.31,0-3.06,2.56-5.41,6.8-5.41a11,11,0,0,1,4.59.91l-.91,3.28a8.48,8.48,0,0,0-3.76-.86c-1.76,0-2.61.8-2.61,1.74,0,1.14,1,1.65,3.33,2.53,3.18,1.17,4.67,2.83,4.67,5.36,0,3-2.32,5.57-7.25,5.57a11.8,11.8,0,0,1-5.1-1.09Z"/><path class="cls-1" d="M96.52,121.44c-1.59,21.82-20.71,28.36-44,28.36-24.22-.05-44.21-7.07-44.12-31.53v-4.71C8.34,89.15,28.33,82.13,52.55,82c23.26,0,42.38,6.58,44,28.35H70.72c-2.36-6.34-9.52-7.83-18.17-7.83-10.29.14-19,2-18.89,12.59v1.58c-.14,10.53,8.6,12.45,18.89,12.6,8.65,0,15.86-1.54,18.17-7.89Z"/><path class="cls-1" d="M104,83.72H179.6v16.53H129.19v8.27H179.6v14.94H129.19v8.27H179.6v16.58H104Z"/><path class="cls-1" d="M250.43,83.72c17.74-.24,30.91,14.66,30.76,32.29.15,17.54-13,32.54-30.76,32.3H193V83.72Zm-4.7,20.47H218.14v23.65h27.59c6.53,0,10.23-5.34,10.23-11.83S252.26,104.19,245.73,104.19Z"/><path class="cls-1" d="M468.93,83.67a24.39,24.39,0,0,1,24.41,24.41,23.58,23.58,0,0,1-3.89,13.22,24.26,24.26,0,0,1-10.19,8.84l14.08,18.12H466.52L454.37,132.5h-22.5v15.76H406.69V83.67Zm-37.06,18.89v11h30.71a5.48,5.48,0,0,0,5.53-5.48,5.5,5.5,0,0,0-5.53-5.52Z"/><polygon class="cls-1" points="323.33 64.1 274.72 148.31 371.95 148.31 323.33 64.1"/><polygon class="cls-1" points="402.27 148.31 360.51 75.97 348.94 96.01 379.14 148.31 402.27 148.31"/></svg>